<svg width="1681" height="1191" viewBox="0 0 1681 1191" fill="none" xmlns="http://www.w3.org/2000/svg">
<path d="M971.42 217.96C930.36 184.42 886.467 155.11 839.74 130.03C753.02 83.4801 657.85 52.2701 559.57 43.6801C552.223 43.0335 544.87 42.6201 537.51 42.4401C534.82 42.3701 532.05 41.9401 529.59 41.8701C498.13 40.9901 466.887 42.9635 435.86 47.7901C417.65 50.6301 399.77 56.2401 382.59 62.6801C372.35 66.5301 387.37 76.6601 390.49 79.6601C405.13 93.7068 417.527 108.593 427.68 124.32C443.833 149.347 458.93 176.78 472.97 206.62C498.12 260.08 515.9 316.66 523.25 374.81C524.67 386.11 520.26 395.47 511.45 402.67C509.75 404.057 507.97 404.433 506.11 403.8C493.91 399.62 485.85 397.97 469.12 394.56C416.87 383.91 380.06 349.75 344.95 312.06C315.203 280.133 290.163 245.257 269.83 207.43C250.85 172.11 235.64 130.06 230.52 90.9501C229.607 83.9768 229.133 74.5801 229.1 62.7601C229.09 60.4801 227.88 57.6201 225.14 59.2201C224.3 59.7135 223.563 60.3268 222.93 61.0601C198.843 89.1001 177.303 118.113 158.31 148.1C85.7099 262.7 40.7599 393.87 31.9599 529C31.8399 530.9 31.6999 532.463 31.5399 533.69C30.8399 539.21 31.4499 544.86 31.0099 550.43C29.8699 565.01 30.1699 579.64 30.2499 594.25C30.2699 598.59 30.8499 603.2 30.9599 607.17C31.2666 617.93 32.1799 631.727 33.6999 648.56C46.1499 786.74 98.6099 923.93 199.09 1022.27C271.21 1092.85 366.34 1137.87 466.91 1146.92C471.91 1147.37 478.33 1147.52 484.03 1148.05C491.07 1148.7 501.2 1149.54 507.91 1147.53C513.78 1145.76 517.41 1143.12 523.69 1145.7C523.891 1145.78 524.116 1145.8 524.33 1145.74C526.76 1145.07 528.99 1144.2 531.49 1143.94C536.123 1143.46 540.753 1142.98 545.38 1142.51C555.31 1141.49 567.52 1141.52 577.24 1139.7C582.287 1138.76 592.973 1136.25 609.3 1132.16C668.11 1117.46 723.58 1086.65 762.26 1038.94C794.02 999.77 814.07 949.34 814 898.26C813.99 890.25 814.23 881.93 813.53 874.27C809.323 827.91 793.24 786.307 765.28 749.46C725.02 696.4 661.54 661.87 595.5 656.99C529.68 652.12 448.37 679.72 406.25 732.37C385.743 758.01 375.483 787.567 375.47 821.04C375.47 822.433 375.67 824.547 376.07 827.38C376.47 830.19 376.4 833.4 376.71 835.87C381.783 876.77 400.617 910.243 433.21 936.29C435.083 937.783 436.677 937.867 437.99 936.54C438.145 936.385 438.244 936.184 438.27 935.97C438.75 932.497 438.64 929.117 437.94 925.83C436.46 918.91 442.24 914.31 446.48 921.93C453.39 934.34 460.1 945.92 469.89 956.36C487.16 974.78 509.98 983.22 534.94 981.17C572.4 978.08 607.36 954.4 617.22 916.66C631.31 862.71 586.88 807.45 530.49 811.99C524.24 812.5 509.47 822.68 506.06 825.05C503.92 826.54 503.46 829.25 503.79 831.94C504.74 839.63 504.44 847.51 505.05 855C505.437 859.78 505.63 864.98 505.63 870.6C505.63 875.933 508.003 879.32 512.75 880.76C521.66 883.45 530.44 887 539.24 890.03C542.64 891.19 545.27 891.03 546.84 887.59C553.78 872.42 535.39 869.39 525.7 871.93C524 872.377 522.507 872.003 521.22 870.81C511.32 861.6 511.91 848.32 519.26 837.8C523.44 831.81 527.15 827.02 534.83 827.67C540.79 828.18 546.55 828.5 551.91 831.52C565.543 839.207 577.697 848.24 588.37 858.62C590.18 860.38 590.76 863.01 590.2 865.61C585.88 885.663 578.363 904.45 567.65 921.97C565.46 925.55 563.92 928.81 559.77 927.92C535.65 922.787 512.28 914.86 489.66 904.14C480.62 899.85 477.62 898.79 475.73 887.75C474 877.64 475.73 865.69 473.95 853.94C473.21 849.08 473.91 844.49 472.97 839.62C472.33 836.34 472.6 832.68 472.27 829.8C471.803 825.713 471.38 821.62 471 817.52C470.19 808.75 472.78 804.81 480.53 800.66C495.74 792.5 513.86 786.45 531.24 785.71C533.52 785.62 535.8 785 537.94 785C550.253 785.027 561.513 786.47 571.72 789.33C619.86 802.8 653.62 849.43 652.85 899.3C651.92 958.8 607.06 1006.19 547.76 1010.73C540.79 1011.27 534.27 1010.3 526.55 1008.56C516.517 1006.29 506.417 1004.37 496.25 1002.8C415.16 990.26 350.71 933.21 335.87 851.32C334.37 843.03 333.9 834.8 333.15 826.22C332.68 820.88 333.51 814.58 333.76 810.55C338.03 740.55 383.97 680.69 444.4 648.6C454.85 643.06 464.82 635.93 477.26 636.51C479 636.59 480.58 636.123 482 635.11C489.573 629.723 498.223 626.637 507.95 625.85C513.46 625.4 517.13 621.61 523.36 620.97C526.72 620.63 529.13 620.333 530.59 620.08C565.12 614.08 600.6 614.13 635.69 621.73C687.79 633.01 732.643 656.52 770.25 692.26C834.97 753.78 863.42 839.33 852.3 927.84C845.8 979.553 826.233 1025.64 793.6 1066.11C790.9 1069.46 788.177 1072.79 785.43 1076.1C779.05 1083.79 773.98 1092.52 768.54 1100.61C768.493 1100.68 768.437 1100.75 768.37 1100.81C745.96 1120.47 720.09 1137.21 691.9 1149.01C658.53 1162.96 624.89 1171.25 589.39 1178.37C584.72 1179.3 580.69 1182.07 577.64 1185.27C577.486 1185.44 577.276 1185.54 577.05 1185.57C547.68 1189.67 521.03 1190.84 488.36 1190.1C480.83 1189.93 472.38 1189.25 464.54 1188.53C189.23 1163.21 18.4899 900.24 2.69993 644.56C2.14993 635.75 1.36993 627.53 1.28993 619.88C1.18993 610.85 1.68993 601.75 0.689925 592.77C0.279925 589.04 1.24993 585.28 1.24993 582.08C1.25993 570.54 0.489925 558.34 1.85993 546.91C2.46993 541.85 2.03993 537.05 2.76993 531.92C3.37993 527.71 3.13993 523.59 3.66993 519.35C3.86326 517.837 4.06659 515.893 4.27993 513.52C18.7099 353.81 80.2399 199.78 184.33 77.8301C197.643 62.2301 212.923 45.7535 230.17 28.4001C237.37 21.1601 243.44 13.7701 248.54 6.05013C250.84 2.58013 252.9 0.230127 257.39 0.250127C266.32 0.280127 272.69 0.930127 279.84 6.67013C281.66 8.13013 282.18 9.95679 281.4 12.1501C280.287 15.3101 279.8 18.8401 279.94 22.7401C279.993 24.1335 279.757 25.3935 279.23 26.5201C275.34 34.8701 269.75 43.5001 268.54 52.7201C267.08 63.9201 267.95 73.8901 268.93 83.2401C270.99 102.833 275.27 121.93 281.77 140.53C302.67 200.4 339.02 255.24 381.72 301.8C385.993 306.46 390.257 311.133 394.51 315.82C399.89 321.76 406.28 327.09 412.17 332.83C430.463 350.677 451.057 365.24 473.95 376.52C479.35 379.18 481.78 377.26 481.07 371.45C480.617 367.737 480.16 364.023 479.7 360.31C477.94 346.05 473.85 331.93 469.56 317.44C449.02 248.18 417.49 183.3 376.24 124.46C367.68 112.253 361.277 104.007 357.03 99.7201C351.057 93.6935 345.093 87.6568 339.14 81.6101C334.687 77.0835 331.66 72.4501 330.06 67.7101C324.65 51.6901 341.05 50.9201 351.19 48.5101C354.417 47.7435 357.897 46.7101 361.63 45.4101C397.063 33.0168 433.77 25.4668 471.75 22.7601C475.48 22.4901 479.15 22.5701 482.4 22.2601C493.753 21.1868 503.123 20.9535 510.51 21.5601C519.48 22.2901 528.61 22.4001 535.74 23.0701C539.907 23.4635 544.07 23.8368 548.23 24.1901C706.05 37.5401 855.19 103.86 974.29 207.73C978.157 211.103 982.04 214.46 985.94 217.8C993.35 224.14 993.77 210.25 1003.15 214.64C1009.95 217.827 1015.57 222.457 1020.01 228.53C1021.16 230.097 1021.15 231.66 1020 233.22C1017.41 236.727 1014.67 240.213 1011.76 243.68C1006.59 249.84 999.88 247.63 993.03 248.66C954.14 254.52 919.48 270.21 885.52 289.36C831.3 319.94 781.57 354.71 737.04 398.39C734.44 400.93 730.95 403.31 728.83 398.6C728.745 398.411 728.721 398.205 728.76 398.01C730.3 389.63 742.41 379.44 748.34 373.53C751.627 370.25 754.963 367.133 758.35 364.18C782.43 343.187 805.43 324.747 827.35 308.86C872.21 276.34 920.253 249.487 971.48 228.3C978.44 225.42 975.46 221.26 971.42 217.96Z" fill="black"/>
<path d="M1610.74 174.6C1619.71 166.56 1630.52 156.09 1640.7 147.18C1641.98 146.06 1642.97 144.724 1643.67 143.17C1644.34 141.677 1643.98 140.504 1642.59 139.65C1637.9 136.78 1632.83 132.83 1627.39 131.71C1609.76 128.08 1591.28 124.23 1573.24 124.08C1526.5 123.67 1480.22 130 1434.59 139.73C1228.29 183.697 1033.11 257.04 849.039 359.76C845.293 361.854 839.066 365.73 830.359 371.39C806.606 386.844 783.586 403.32 761.299 420.82C758.273 423.2 755.016 423.25 751.53 420.97C751.376 420.871 751.254 420.73 751.176 420.564C751.099 420.398 751.069 420.213 751.09 420.03C751.77 413.68 758.759 406.58 763.359 402.5C791.239 377.72 822.58 355.93 854.46 336.65C916.84 298.924 981.183 266.037 1047.49 237.99C1098.12 216.577 1150.35 196.457 1204.17 177.63C1263.92 156.73 1328.02 137.767 1396.49 120.74C1453.02 106.68 1509.9 96.7803 1565.81 94.2703C1570.6 94.0603 1575.41 93.2103 1580.11 93.3203C1589.5 93.5337 1598.86 92.997 1608.18 91.7103C1610.73 91.3637 1613.09 91.3503 1615.28 91.6703C1629.24 93.7303 1643.08 97.6503 1656.81 103.43C1668.37 108.3 1674.05 118 1679.95 128.66C1680.03 128.799 1680.07 128.955 1680.07 129.113C1680.08 129.271 1680.05 129.428 1679.98 129.57C1675.01 140.204 1666.77 145.814 1655.25 146.4C1653.31 146.5 1651.7 147.187 1650.43 148.46C1631.46 167.42 1612.56 186.314 1593.73 205.14C1590.86 208.01 1588.02 211.6 1584.98 214.71C1582.15 217.61 1580.27 218.19 1576.21 216.83C1560.25 211.51 1551.09 197.24 1545.33 182.1C1542.19 173.834 1539.3 165.474 1536.67 157.02C1533.68 147.4 1547.09 144.62 1553.51 143.57C1566.5 141.457 1579.58 140.514 1592.74 140.74C1593.31 140.754 1594.79 140.587 1597.2 140.24C1603.1 139.39 1604.8 143.17 1607.8 147.43C1610.09 150.677 1609.93 153.644 1607.33 156.33C1599.06 164.89 1590.99 173.58 1581.17 180.19C1571.09 186.96 1565.25 172.14 1563.97 164.56C1563.94 164.363 1563.85 164.18 1563.71 164.036C1563.57 163.891 1563.39 163.792 1563.19 163.75C1560.8 163.25 1559.85 164.417 1560.33 167.25C1562.22 178.47 1565.68 193.44 1574.58 201.33C1576.12 202.69 1577.81 202.92 1579.66 202.02C1580.62 201.547 1581.75 200.72 1583.06 199.54C1592.26 191.2 1601.49 182.887 1610.74 174.6Z" fill="black"/>
<path d="M596.94 321.8C580.73 307.89 567.99 282.59 567.7 261.26C567.65 257.17 567.27 253.2 567.85 249.27C573.01 214.03 602.1 181.59 638.51 178.13C657.56 176.33 678.36 183.13 694.66 192.86C708.51 201.13 719.7 213.34 712.79 230.66C709.32 239.36 700.35 241.08 691.93 238.04C681.163 234.154 671.976 227.924 664.37 219.35C662.783 217.564 660.766 216.564 658.32 216.35C626.65 213.54 606.53 236.76 605.41 266.74C604.79 283.2 613.13 298.55 625.37 309.26C630.336 313.607 634.556 316.557 638.03 318.11C649.2 323.08 663.06 318.51 673.09 312.38C676.49 310.29 677.38 307.48 672.47 306.45C665.89 305.07 644.55 300.29 645.38 290.04C646.03 282.05 656.61 284.56 661.51 285.36C665.63 286.04 668.646 286.344 670.56 286.27C675.64 286.07 692.54 283.93 693.33 277.02C695.59 257.01 710.13 251.19 726.81 262.19C735.25 267.76 729.66 277.53 725.52 283.52C722.42 288 720.12 291.91 718.04 297.46C709.546 320.12 693.196 334.357 668.99 340.17C667.316 340.577 663.126 341.154 656.42 341.9C651.3 342.47 646.79 341.77 641.76 341.22C624.773 339.334 609.833 332.86 596.94 321.8Z" fill="black"/>
</svg>
