<svg width="235" height="168" viewBox="0 0 235 168" fill="none" xmlns="http://www.w3.org/2000/svg">
<path d="M105.629 60.4785C132.5 37.2735 222.041 5.52605 233.92 20.9485" stroke="#111111" stroke-width="2" stroke-linecap="round"/>
<path d="M221.116 26.8428C221.298 24.629 222.034 23.7219 224.774 22.6865C220.38 23.9102 217.625 24.127 215.573 23.5172C217.947 29.4008 219.258 31.3523 221.56 32.4981C222.613 28.7446 222.89 26.8428 233.921 20.0801" stroke="#111111" stroke-linecap="round"/>
<path d="M128.274 45.8204C179.744 19.5321 217.03 11.0483 232.924 20.7708" stroke="#111111" stroke-width="4" stroke-linecap="round"/>
<path d="M90.7646 41.6582C94.9193 43.453 97.0287 42.5538 100.262 38.4199" stroke="#111111" stroke-linecap="round"/>
<path d="M100.154 34.3167C95.9458 27.8395 81.8083 25.4644 81.8076 40.3612C86.1246 53.0961 99.8304 46.405 101.233 38.2018" stroke="#111111" stroke-width="3" stroke-linecap="round"/>
<path d="M101.717 58.2906C123.615 39.709 127.334 37.8193 142.19 33.9238" stroke="#111111" stroke-linecap="round"/>
<path d="M141.464 33.9219C137.234 34.3315 126.146 37.8833 123.043 41.4495" stroke="#111111" stroke-width="4" stroke-linecap="round"/>
<path d="M47.1387 11.0803C71.0807 2.3031 96.5269 2.55531 138.645 34.0218" stroke="#111111" stroke-linecap="round"/>
<path d="M46.2617 12.9598C62.9046 4.69601 75.7401 4.78404 104.425 12.0823" stroke="#111111" stroke-width="4" stroke-linecap="round"/>
<path d="M47.2646 9.44727C64.187 23.2373 71.0813 44.8011 69.7024 58.0905" stroke="#111111" stroke-width="4" stroke-linecap="round"/>
<path d="M37.1101 2.30078C33.3496 25.7459 45.3839 47.3097 70.8294 58.7182" stroke="#111111" stroke-width="4" stroke-linecap="round"/>
<path d="M36.5032 4.33594C-33.2823 71.9984 13.6686 175.094 79.1854 165.702" stroke="#111111" stroke-width="3" stroke-linecap="round"/>
<path d="M75.3109 91.5444C138.259 87.9026 126.332 186.015 48.4551 161.193" stroke="#111111" stroke-width="5" stroke-linecap="round"/>
<path d="M78.6059 90.5059C46.5248 92.4137 37.6814 129.356 70.9755 140.283" stroke="#111111" stroke-width="3" stroke-linecap="round"/>
<path d="M74.4334 119.927C81.7858 119.27 82.0053 132.883 71.7998 128.928" stroke="#111111" stroke-width="3" stroke-linecap="round"/>
<path d="M62.0322 133.21C84.2007 156.04 101.101 118.832 78.3845 114.33" stroke="#111111" stroke-linecap="round"/>
<path d="M72.4571 128.934C62.9099 123.774 64.666 110.383 77.7254 112.469" stroke="#111111" stroke-width="2" stroke-linecap="round"/>
<path d="M61.9238 130.358C66.4229 146.382 87.1643 146.163 90.6756 127.174" stroke="#111111" stroke-width="2" stroke-linecap="round"/>
<path d="M68.6172 115.76C77.2865 108.955 89.1387 115.213 89.1387 127.724" stroke="#111111" stroke-width="4" stroke-linecap="round"/>
</svg>
